<?xml version="1.0" encoding="UTF-8"?>
<svg id="_图层_1" data-name="图层 1" xmlns="http://www.w3.org/2000/svg" viewBox="0 0 512 512">
  <defs>
    <style>
      .cls-1 {
        fill: #fff;
        fill-rule: evenodd;
      }

      .cls-2 {
        fill: #1e5bff;
      }
    </style>
  </defs>
  <rect class="cls-2" width="512" height="512"/>
  <g>
    <path class="cls-1" d="M253.37,289.07c-18.73,0-33.92-14.09-33.92-31.46v-96.31h-96.51c-24.69,0-44.7,18.56-44.7,41.46v172.63c0,22.9,20.01,41.46,44.7,41.46h106.84c89.55,0,130.88-51.11,130.88-127.77,0-.73-.01-1.46-.02-2.19-8.04,1.44-16.76,2.19-26.19,2.19h-81.08Z"/>
    <path class="cls-1" d="M433.76,192.11c0-58.18-31.36-96.96-99.32-96.96h-81.08c-18.73,0-33.92,14.09-33.92,31.46v34.69h10.33c88.69,0,130.07,50.14,130.86,125.58,49.86-8.95,73.12-44.67,73.12-94.77Z"/>
  </g>
</svg>
